<?xml version="1.0" encoding="utf-8"?>
<!-- Generator: Adobe Illustrator 22.0.0, SVG Export Plug-In . SVG Version: 6.00 Build 0)  -->
<svg version="1.1" id="Capa_1" xmlns="http://www.w3.org/2000/svg" xmlns:xlink="http://www.w3.org/1999/xlink" x="0px" y="0px"
	 viewBox="0 0 485.9 485.9" style="enable-background:new 0 0 485.9 485.9;" xml:space="preserve">
<style type="text/css">
	.st0{fill:#58595B;}
</style>
<g>
	<g>
		<path class="st0" d="M195.8,202.7L195.8,202.7c0.2,0,0.3,0,0.5,0s0.3,0,0.5,0l0,0c91-1,77.8-122.5,77.8-122.5
			C270.9-1,203-0.3,196.3,0c-6.7-0.3-74.6-0.9-78.3,80.2C118,80.2,104.8,201.7,195.8,202.7z"/>
		<path class="st0" d="M295.2,329.4h3.2c7.7-16.5,18.7-30.3,32.7-41.3c4.4-3.4,9.2-6.5,14.2-9.2c-4.1-4.1-9.1-8.1-15.4-12.1
			c-35.5-22.3-75.2-41.6-75.2-41.6L223.1,325l-18.3-52.2c32.4-45.2-2.3-47.5-8.5-47.5l0,0c-0.1,0-0.1,0-0.2,0c-0.1,0-0.1,0-0.2,0
			l0,0c-6.2,0.1-40.8,2.3-8.5,47.5L169,325.1l-31.6-99.8c0,0-39.7,19.3-75.2,41.6c-26.7,16.8-31.6,34.9-32.4,61.1l0.2,88.8
			l165.9-0.3h68.2c-0.4-1.9-0.6-3.9-0.6-5.9v-13.3c0-4,0.8-7.9,2.1-11.4c-1.4-3.5-2.1-7.4-2.1-11.4v-13.3
			C263.6,343.6,277.8,329.4,295.2,329.4z"/>
		<path class="st0" d="M455,464.5c-2.2-5.4-4.4-10.7-6.8-16c-2.1-4.7-4.9-6.1-10-4.9c-6.5,1.5-12.9,3.5-19.5,4.8
			c-12.6,2.6-25.2,2.9-37.7-1.1c-15.6-4.9-23.9-16.2-29-30.8h42.3c3.3,0,6-2.7,6-6v-13.3c0-3.3-2.7-6-6-6h-46.4c0-3.7,0-7.3,0-10.8
			h46.3c3.3,0,6-2.7,6-6v-13.3c0-3.3-2.7-6-6-6h-40.4c0-0.2,0-0.3,0.1-0.4c4.8-11.1,12-19.9,23.6-24.5c13.5-5.4,27.4-5.2,41.3-2.4
			c6.6,1.3,13.1,3.4,19.7,4.9c4.8,1.1,7.6-0.3,9.7-4.8c2.4-5.2,4.6-10.5,6.8-15.7c2.1-5,0.9-8.5-3.8-11.3c-1.2-0.7-2.4-1.3-3.7-1.7
			c-19.5-7.6-39.7-10.5-60.5-7.1c-14.6,2.3-28.3,7.4-40.1,16.5c-14.9,11.5-24.5,26.7-30.1,44.6l-0.7,2.1h-20.9c-3.3,0-6,2.7-6,6
			v13.3c0,3.3,2.7,6,6,6h16.4c0,3.7,0,7.2,0,10.8h-16.4c-3.3,0-6,2.7-6,6v13.3c0,3.3,2.7,6,6,6H315c1.5,4.9,2.7,9.8,4.7,14.5
			c10,24.1,26.8,41.3,52,49.5c20.9,6.8,41.9,6.6,62.9,0.8c5.5-1.5,10.9-3.5,16.1-5.8C455.7,473.2,457,469.3,455,464.5z"/>
	</g>
</g>
</svg>
