<?xml version="1.0" encoding="utf-8"?>
<!-- Generator: Adobe Illustrator 22.0.0, SVG Export Plug-In . SVG Version: 6.00 Build 0)  -->
<svg version="1.1" id="Layer_1" xmlns="http://www.w3.org/2000/svg" xmlns:xlink="http://www.w3.org/1999/xlink" x="0px" y="0px"
	 viewBox="0 0 200 200" style="enable-background:new 0 0 200 200;" xml:space="preserve">
<style type="text/css">
	.st0{display:none;}
	.st1{display:inline;}
	.st2{fill:#E74B65;}
</style>
<g class="st0">
	<g class="st1">
		<path class="st2" d="M179,170.5c-1.3,0-2.7,0.4-3.9,1c-12.6,7.3-27,11.2-41.6,11.2c-35.3,0-66.5-23-78.2-55.3h71.2
			c4.2,0,7.7-3.4,7.7-7.7c0-4.2-3.4-7.7-7.7-7.7h-75c-0.6-4.6-0.9-8.3-0.9-12.3c0-4,0.3-7.7,0.9-12.3h75c4.2,0,7.7-3.4,7.7-7.7
			c0-4.2-3.4-7.7-7.7-7.7H55.3C67,38.3,98.2,16.7,133.5,16.7c14.6,0,29,3.9,41.6,11.2c1.2,0.7,2.5,1,3.9,1c2.7,0,5.3-1.5,6.7-3.8
			c2.1-3.7,0.9-8.4-2.8-10.5c-14.9-8.7-32-13.2-49.3-13.2C90,1.4,51.4,30.6,39.1,72.1H20.4c-4.2,0-7.7,3.4-7.7,7.7
			c0,4.2,3.5,7.7,7.7,7.7h15.6c-0.5,4.6-0.8,8.3-0.8,12.3c0,4,0.3,7.7,0.8,12.3H20.4c-4.2,0-7.7,3.4-7.7,7.7c0,4.2,3.5,7.7,7.7,7.7
			h18.8c12.2,41.5,50.9,70.7,94.4,70.7c17.3,0,34.4-4.6,49.3-13.3c3.7-2.1,4.9-6.9,2.8-10.5C184.3,172,181.7,170.5,179,170.5z"/>
	</g>
</g>
<g class="st0">
	<g id="Search_1_" class="st1">
		<g>
			<path class="st2" d="M193.2,177.1l-39.8-39.8c11.2-14.3,18-32.2,18-51.8c0-46.4-37.6-84-84-84c-46.4,0-84,37.6-84,84
				s37.6,84,84,84c18.2,0,34.9-5.8,48.6-15.6l40.2,40.2c4.7,4.7,12.3,4.7,17,0C197.8,189.4,197.8,181.8,193.2,177.1z M133.9,127.8
				c-1.6,0.6-3.1,1.4-4.4,2.7c-1.2,1.2-2.1,2.5-2.6,4c-10.8,8.8-24.6,14-39.6,14c-34.8,0-63-28.2-63-63s28.2-63,63-63s63,28.2,63,63
				C150.3,101.8,144.1,116.6,133.9,127.8z"/>
		</g>
	</g>
</g>
<g>
	<path class="st2" d="M100.8,79.6l17.6,17.6l-4.3,4.3L96.4,83.9L100.8,79.6z M133.8,60.2c-3.8-3.8-9.9-3.8-13.6,0l-14.6,14.6
		l17.6,17.6l14.6-14.6c3.8-3.8,3.8-9.9,0-13.6L133.8,60.2z M3.3,177c-3.8,3.8-3.8,9.9,0,13.6l4,4c3.8,3.8,9.9,3.8,13.6,0l87.9-87.9
		L91.2,89.1L3.3,177z M190,30.1"/>
	<path class="st2" d="M173.9,58.6l-3.3,8.6l-8.6,3.3l8.6,3.3l3.3,8.6l3.3-8.6l8.6-3.3l-8.6-3.3L173.9,58.6z M146.5,21.4l-5.9-15.6
		l-5.9,15.6l-15.6,5.9l15.6,5.9l5.9,15.6l5.9-15.6l15.6-5.9L146.5,21.4z M190,30.1l-3.5-9.2l-3.5,9.2l-9.2,3.5l9.2,3.5l3.5,9.2
		l3.5-9.2l9.2-3.5L190,30.1z M190,30.1"/>
	<path class="st2" d="M190,30.1l-3.5-9.2l-3.5,9.2l-9.2,3.5l9.2,3.5l3.5,9.2l3.5-9.2l9.2-3.5L190,30.1z M190,30.1"/>
	<path class="st2" d="M100.8,79.6l17.6,17.6l-4.3,4.3L96.4,83.9L100.8,79.6z M190,30.1"/>
</g>
</svg>
