<?xml version="1.0" encoding="utf-8"?>
<!-- Generator: Adobe Illustrator 22.0.0, SVG Export Plug-In . SVG Version: 6.00 Build 0)  -->
<svg version="1.1" id="Capa_1" xmlns="http://www.w3.org/2000/svg" xmlns:xlink="http://www.w3.org/1999/xlink" x="0px" y="0px"
	 viewBox="0 0 50 50" style="enable-background:new 0 0 50 50;" xml:space="preserve">
<style type="text/css">
	.st0{fill:#E74B65;}
</style>
<g>
	<g>
		<path class="st0" d="M40.5,34.7c-0.2,0-0.4-0.1-0.6-0.2l-9.3-8.7c-0.3-0.3-0.3-0.8,0-1.1c0.3-0.3,0.8-0.3,1.1,0l9.3,8.7
			c0.3,0.3,0.3,0.8,0,1.1C40.9,34.6,40.7,34.7,40.5,34.7z"/>
		<path class="st0" d="M9.5,34.7c-0.2,0-0.4-0.1-0.6-0.3c-0.3-0.3-0.3-0.8,0-1.1l9.3-8.7c0.3-0.3,0.8-0.3,1.1,0
			c0.3,0.3,0.3,0.8,0,1.1l-9.3,8.7C9.9,34.6,9.7,34.7,9.5,34.7z"/>
	</g>
	<path class="st0" d="M46,42.8H4c-2.2,0-4-1.8-4-4V11.3c0-2.2,1.8-4,4-4H46c2.2,0,4,1.8,4,4v27.5C50,41,48.2,42.8,46,42.8z M4,8.8
		c-1.3,0-2.4,1.1-2.4,2.4v27.5c0,1.3,1.1,2.4,2.4,2.4H46c1.3,0,2.4-1.1,2.4-2.4V11.3c0-1.3-1.1-2.4-2.4-2.4H4z"/>
	<path class="st0" d="M25,29.1c-1.1,0-2.1-0.4-3-1.1L1.3,9.9C1,9.6,1,9.1,1.3,8.8c0.3-0.3,0.8-0.4,1.1-0.1l20.7,18.1
		c1,0.9,2.8,0.9,3.8,0l20.7-18c0.3-0.3,0.8-0.3,1.1,0.1C49,9.2,49,9.7,48.6,10L28,28C27.1,28.7,26.1,29.1,25,29.1z"/>
</g>
</svg>
