<?xml version="1.0" encoding="utf-8"?>
<!-- Generator: Adobe Illustrator 22.0.0, SVG Export Plug-In . SVG Version: 6.00 Build 0)  -->
<svg version="1.1" id="Capa_1" xmlns="http://www.w3.org/2000/svg" xmlns:xlink="http://www.w3.org/1999/xlink" x="0px" y="0px"
	 viewBox="0 0 150 150" style="enable-background:new 0 0 150 150;" xml:space="preserve">
<style type="text/css">
	.st0{fill:#58595B;}
</style>
<g>
	<path class="st0" d="M75,65c9.7,0,17.5-7.9,17.5-17.5S84.7,30,75,30s-17.5,7.9-17.5,17.5S65.3,65,75,65z M75,35
		c6.9,0,12.5,5.6,12.5,12.5S81.9,60,75,60s-12.5-5.6-12.5-12.5S68.1,35,75,35z"/>
	<path class="st0" d="M74.6,136.9l38.4-55.4c14.4-19.2,12.3-50.7-4.5-67.5C99.4,5,87.4,0,74.6,0S49.7,5,40.7,14
		c-16.8,16.8-18.8,48.3-4.5,67.4L74.6,136.9z M44.2,17.6C52.3,9.5,63.1,5,74.6,5s22.3,4.5,30.4,12.6c15.1,15.1,17,43.6,3.9,61
		l-34.3,49.5L40.2,78.5C27.2,61.2,29.1,32.7,44.2,17.6z"/>
	<path class="st0" d="M105.3,107.5c-1.4-0.2-2.6,0.8-2.8,2.2c-0.2,1.4,0.8,2.6,2.2,2.8c26.3,3.1,40.3,11.4,40.3,16.3
		c0,6.8-26.6,16.2-70,16.2s-70-9.5-70-16.2c0-4.8,14-13.2,40.3-16.3c1.4-0.2,2.3-1.4,2.2-2.8c-0.2-1.4-1.4-2.4-2.8-2.2
		C18.4,110.6,0,119.3,0,128.8C0,139.3,25.8,150,75,150s75-10.7,75-21.2C150,119.3,131.6,110.6,105.3,107.5z"/>
</g>
</svg>
