<?xml version="1.0" encoding="utf-8"?>
<!-- Generator: Adobe Illustrator 22.0.0, SVG Export Plug-In . SVG Version: 6.00 Build 0)  -->
<svg version="1.1" id="Capa_1" xmlns="http://www.w3.org/2000/svg" xmlns:xlink="http://www.w3.org/1999/xlink" x="0px" y="0px"
	 viewBox="0 0 51.6 51.6" style="enable-background:new 0 0 51.6 51.6;" xml:space="preserve">
<style type="text/css">
	.st0{fill:#E74B65;}
</style>
<path class="st0" d="M51.4,0.9c-0.3-0.3-0.8-0.4-1.1-0.2L0.6,23.5c-0.4,0.2-0.6,0.6-0.6,1s0.4,0.8,0.8,0.9l22.3,3.7l2.5,21
	c0.1,0.4,0.4,0.8,0.8,0.9c0.1,0,0.1,0,0.2,0c0.4,0,0.7-0.2,0.9-0.6l24-48.4C51.7,1.7,51.6,1.2,51.4,0.9z M27.2,46.6L25,28.1
	c-0.1-0.4-0.4-0.8-0.8-0.9L4.4,23.9L48.5,3.7L27.2,46.6z"/>
</svg>
