<?xml version="1.0" encoding="utf-8"?>
<!-- Generator: Adobe Illustrator 22.0.0, SVG Export Plug-In . SVG Version: 6.00 Build 0)  -->
<svg version="1.1" id="Capa_1" xmlns="http://www.w3.org/2000/svg" xmlns:xlink="http://www.w3.org/1999/xlink" x="0px" y="0px"
	 viewBox="0 0 66.5 150" style="enable-background:new 0 0 66.5 150;" xml:space="preserve">
<style type="text/css">
	.st0{fill:#58595B;}
</style>
<g>
	<g>
		<circle class="st0" cx="33" cy="12.6" r="12.6"/>
		<path class="st0" d="M37.4,31.3c-3.1-0.6-6.6-0.6-9.7,0.1C6.8,33.8-0.1,58.1,1.9,76.7c0.8,8,13.5,8.1,12.6,0
			c-0.7-6.8-0.4-16.9,3.2-24.2c0,8.8,0,17.6,0,26.4c0,0.3,0,0.6,0,0.9c0,0.1,0,0.3,0,0.4c0,21,0,41.9-0.9,62.8
			c-0.4,9.3,14,9.3,14.4,0c0.7-16.4,0.8-32.8,0.9-49.2c0.7,0,1.4,0,2.1,0c0,16.4,0.2,32.8,0.9,49.2c0.4,9.3,14.8,9.3,14.4,0
			c-0.9-20.9-0.9-41.9-0.9-62.8c0-0.6-0.1-1.2-0.2-1.8c0-9.1-0.4-18.2-0.3-27.3c4.3,7.3,4.7,18.4,3.9,25.6c-0.8,8.1,11.8,8,12.6,0
			C66.6,57.8,59.5,32.8,37.4,31.3z"/>
	</g>
</g>
</svg>
