<svg id="Layer_1" data-name="Layer 1" xmlns="http://www.w3.org/2000/svg" viewBox="0 0 506 118.5"><defs><style>.cls-1{fill:#ffe800;}.cls-2{fill:#fdb813;}.cls-3{fill:#f68b39;}.cls-4{fill:#f36f33;}.cls-5{fill:#ee2941;}.cls-6{fill:#c6168d;}.cls-7{fill:#702c91;}.cls-8{fill:#176eaf;}.cls-9{fill:#32a7df;}.cls-10{fill:#51c2ba;}.cls-11{fill:#00a651;}.cls-12{fill:#8cc63f;}.cls-13{fill:#9cc21f;}.cls-14{fill:#ff7b2c;}.cls-15{fill:#6b4fab;}.cls-16{fill:#01b3ef;}.cls-17{fill:#d743e4;}</style></defs><title>logo</title><path class="cls-1" d="M168.89,51.81a25.29,25.29,0,0,1,6.78.94l2.85-10.66a36.12,36.12,0,0,0-19.08,0l2.79,10.66A25.67,25.67,0,0,1,168.89,51.81Z"/><path class="cls-2" d="M187.31,59.58l7.7-7.76a36.45,36.45,0,0,0-16.49-9.73l-2.85,10.66A25.83,25.83,0,0,1,187.31,59.58Z"/><path class="cls-3" d="M194,71.4l10.52-2.82A37.31,37.31,0,0,0,195,51.82l-7.7,7.76A26.35,26.35,0,0,1,194,71.4Z"/><path class="cls-4" d="M204.49,68.58,194,71.4a26.79,26.79,0,0,1,.89,6.74,26.52,26.52,0,0,1-.93,6.89l10.52,2.88A37.59,37.59,0,0,0,204.49,68.58Z"/><path class="cls-5" d="M193.93,85a26.32,26.32,0,0,1-6.72,11.78l7.66,7.81a37.19,37.19,0,0,0,9.58-16.71Z"/><path class="cls-6" d="M187.21,96.81a25.91,25.91,0,0,1-11.67,6.76l2.79,10.66a36.62,36.62,0,0,0,16.54-9.61Z"/><path class="cls-7" d="M168.89,104.48a25.77,25.77,0,0,1-6.79-.94l-2.85,10.65a36,36,0,0,0,19.08,0l-2.79-10.66A25.66,25.66,0,0,1,168.89,104.48Z"/><path class="cls-8" d="M150.47,96.7l-7.7,7.77a36.54,36.54,0,0,0,16.48,9.72l2.85-10.65A25.86,25.86,0,0,1,150.47,96.7Z"/><path class="cls-9" d="M143.8,84.88,133.27,87.7a37.43,37.43,0,0,0,9.5,16.77l7.7-7.77A26.28,26.28,0,0,1,143.8,84.88Z"/><path class="cls-10" d="M142.91,78.14a26.37,26.37,0,0,1,.93-6.87l-10.52-2.89a37.55,37.55,0,0,0,0,19.32l10.53-2.82A26.79,26.79,0,0,1,142.91,78.14Z"/><path class="cls-11" d="M150.57,59.47l-7.66-7.81a37.28,37.28,0,0,0-9.59,16.72l10.52,2.89A26.26,26.26,0,0,1,150.57,59.47Z"/><path class="cls-12" d="M162.23,52.71l-2.79-10.66a36.73,36.73,0,0,0-16.53,9.61l7.66,7.81A25.83,25.83,0,0,1,162.23,52.71Z"/><path class="cls-13" d="M272.74,60.33c-3-5.76-9.31-10.35-16.5-10.35-6.89,0-14.53,3-14.53,10.62,0,6.67,4.64,9.1,13.78,11.22l10,2.43c9.74,2.27,17.08,9.4,17.08,19.41,0,15.46-13.63,21.83-27.26,21.83-10.64,0-20.74-4.14-27.33-14.15l8.28-6.46c4,6.37,10.81,11.51,19,11.51,8.08,0,16.48-3.63,16.48-11.82,0-7.13-6-9.56-13.34-11.38l-9.59-2.27c-4.79-1.21-18-5.16-18-18.66,0-14.7,12.74-21.38,25.92-21.38,9.74,0,19.56,3.91,24.05,13.15Z"/><path class="cls-14" d="M101.89,49.79a28.45,28.45,0,0,0-19.11-8.85c-10.29-.88-18.66,3.58-24.86,13.26-6.2-9.68-14.58-14.14-24.87-13.26-7.8.63-14.19,3.62-19,8.85C8.94,55.24,6.34,62.67,6.34,71.86v43.63H16.77V70.71A22,22,0,0,1,21.35,56.5a15,15,0,0,1,12.23-5.88A19.27,19.27,0,0,1,47,55.77a16.16,16.16,0,0,1,5.68,12.78v46.94H63.19V68.55a16.65,16.65,0,0,1,5.56-12.78,19.62,19.62,0,0,1,13.51-5.15A15.08,15.08,0,0,1,94.61,56.5a22.25,22.25,0,0,1,4.71,14.21v44.78h10.43V71.86C109.75,62.75,107.1,55.33,101.89,49.79Z"/><path class="cls-15" d="M367.32,52.48A35.26,35.26,0,0,0,342.16,41a33.63,33.63,0,0,0-26.29,10.6,36.78,36.78,0,0,0-11,26.7,36.66,36.66,0,0,0,10.23,25.82,34.78,34.78,0,0,0,24.81,11.35c.45,0,.89,0,1.33,0,10.26,0,19.12-4.11,26.35-12.24v10.61h9.58V78.18A34.2,34.2,0,0,0,367.32,52.48Zm-27.24,53.19A25.35,25.35,0,0,1,322,97a27.41,27.41,0,0,1-7.17-19.4,26.5,26.5,0,0,1,7.9-19,25.24,25.24,0,0,1,18.8-7.85,24,24,0,0,1,18.07,7.85,28.38,28.38,0,0,1-.12,39.16A24.14,24.14,0,0,1,340.08,105.67Z"/><path class="cls-16" d="M404.62,2.57a9.51,9.51,0,0,1,7,2.92,9.56,9.56,0,0,1,2.9,7,9.48,9.48,0,0,1-2.9,6.94,9.75,9.75,0,0,1-13.9,0,9.51,9.51,0,0,1-2.9-6.94,9.6,9.6,0,0,1,2.9-7A9.43,9.43,0,0,1,404.62,2.57Zm-5.07,38.22h10.22v74.63H399.55Z"/><path class="cls-17" d="M491,93.34a25.39,25.39,0,0,1-9,9,27.1,27.1,0,0,1-26.64,0,25.57,25.57,0,0,1-9.62-9.94,28.48,28.48,0,0,1-3.56-13.91,27.61,27.61,0,0,1,7.81-19.73,25.47,25.47,0,0,1,37.35,0,29.22,29.22,0,0,1,4.26,5.72h11.22a37.79,37.79,0,0,0-7.25-11.85,36.28,36.28,0,0,0-53.78.07,37.32,37.32,0,0,0-9.67,25.59,37.39,37.39,0,0,0,10.22,26c6.79,7.4,15.67,11.15,26.37,11.15s19.52-3.75,26.32-11.15a39.06,39.06,0,0,0,7.17-11Z"/></svg>