<?xml version="1.0" encoding="utf-8"?>
<!-- Generator: Adobe Illustrator 22.0.0, SVG Export Plug-In . SVG Version: 6.00 Build 0)  -->
<svg version="1.1" id="Capa_1" xmlns="http://www.w3.org/2000/svg" xmlns:xlink="http://www.w3.org/1999/xlink" x="0px" y="0px"
	 viewBox="0 0 150 150" style="enable-background:new 0 0 150 150;" xml:space="preserve">
<style type="text/css">
	.st0{fill:#58595B;}
</style>
<path class="st0" d="M149.1,55.8c-1.2-1.1-3.1-1.1-4.3,0l-83.1,79.3c-6.1,5.8-14.3,9.1-23,9.1c-8.7,0-16.9-3.2-23-9.1
	s-9.5-13.6-9.5-22c0-8.3,3.4-16.1,9.5-22l83.1-79.3c8.8-8.4,22.7-7.9,32.2,1.2c9.5,9.1,10.1,22.3,1.3,30.7l-78.1,74.5
	c-4.4,4.2-11.5,4.2-15.8,0c-4.4-4.2-4.4-11,0-15.1l52.9-50.5c1.2-1.1,1.2-3,0-4.1c-1.2-1.1-3.1-1.1-4.3,0L34,99.1
	c-6.7,6.4-6.7,16.9,0,23.3c6.7,6.4,17.7,6.4,24.5,0l78.1-74.5c11.3-10.8,10.7-27.5-1.3-39c-12-11.4-29.6-12-40.8-1.2L11.3,87.1
	C4,94,0,103.3,0,113.1s4,19.1,11.3,26.1c7.3,6.9,17,10.8,27.3,10.8c10.4,0,20.1-3.8,27.3-10.8l83.1-79.3
	C150.3,58.8,150.3,56.9,149.1,55.8z"/>
</svg>
