<?xml version="1.0" encoding="utf-8"?>
<!-- Generator: Adobe Illustrator 22.0.0, SVG Export Plug-In . SVG Version: 6.00 Build 0)  -->
<svg version="1.1" id="Capa_1" xmlns="http://www.w3.org/2000/svg" xmlns:xlink="http://www.w3.org/1999/xlink" x="0px" y="0px"
	 viewBox="0 0 512 512" style="enable-background:new 0 0 512 512;" xml:space="preserve">
<style type="text/css">
	.st0{fill:#58595B;}
</style>
<g>
	<g>
		<g>
			<path class="st0" d="M255,394c11,0,20-9,20-20V210c0-7.6-4.3-14.6-11.2-18c-6.9-3.4-15-2.5-21.1,2.1l-40,31
				c-8.7,6.8-10.3,19.3-3.6,28.1c6.8,8.7,19.3,10.3,28.1,3.6l7.7-6V374C235,385,244,394,255,394z"/>
			<path class="st0" d="M492,250c11,0,20-9,20-20V120c0-44.1-35.9-80-80-80h-26V20c0-11-9-20-20-20s-20,9-20,20v20h-91V20
				c0-11-9-20-20-20c-11,0-20,9-20,20v20h-90V20c0-11-9-20-20-20s-20,9-20,20v20H80C35.9,40,0,75.9,0,120v312c0,44.1,35.9,80,80,80
				h252c0.7,0,1.4,0,2-0.1c0.7,0.1,1.3,0.1,2,0.1c5.3,0,10.6-2.1,14.4-6.1l156-162c5.6-5.8,7.1-14.3,4-21.7
				C507.3,314.8,500,310,492,310h-96c-44.1,0-80,35.9-80,80v82H80c-22.1,0-40-17.9-40-40V120c0-22.1,17.9-40,40-40h25v20
				c0,11,9,20,20,20s20-9,20-20V80h90v20c0,11,9,20,20,20c11,0,20-9,20-20V80h91v20c0,11,9,20,20,20s20-9,20-20V80h26
				c22.1,0,40,17.9,40,40v110C472,241,481,250,492,250z M356,390c0-22.1,17.9-40,40-40h49l-89,92.4V390z"/>
		</g>
	</g>
</g>
</svg>
