<?xml version="1.0" encoding="utf-8"?>
<!-- Generator: Adobe Illustrator 22.0.0, SVG Export Plug-In . SVG Version: 6.00 Build 0)  -->
<svg version="1.1" xmlns="http://www.w3.org/2000/svg" xmlns:xlink="http://www.w3.org/1999/xlink" x="0px" y="0px"
	 viewBox="0 0 512 512" style="enable-background:new 0 0 512 512;" xml:space="preserve">
<style type="text/css">
	.st0{fill:#58595B;}
</style>
<g id="Capa_1">
</g>
<g id="Layer_2">
	<g>
		<g>
			<path class="st0" d="M451,39.4h-24V18.9c0-10.8-8.7-19.5-19.5-19.5h0c-11.3,0-20.5,9.2-20.5,20.5v19.5H123l0-21.1
				c0-10.4-8.5-18.9-18.9-18.9h-0.5C92.2-0.6,83,8.6,83,19.9c0,9.8,0,19.5,0,19.5H59c-33.1,0-60,26.9-60,60v352
				c0,33.1,26.9,60,60,60h392c33.1,0,60-26.9,60-60v-352C511,66.3,484.1,39.4,451,39.4z M471,451.4c0,11-9,20-20,20H59
				c-11,0-20-9-20-20v-264h432V451.4z M471,147.4H39v-48c0-11,9-20,20-20h24v19.5c0,11.3,9.2,20.5,20.5,20.5h0
				c10.8,0,19.5-8.7,19.5-19.5V79.4h264v19.5c0,11.3,9.2,20.5,20.5,20.5h0c10.8,0,19.5-8.7,19.5-19.5V79.4h24c11,0,20,9,20,20V147.4
				z"/>
		</g>
	</g>
	<g>
		<g>
			<rect x="75" y="229.4" class="st0" width="40" height="40"/>
		</g>
	</g>
	<g>
		<g>
			<rect x="155" y="229.4" class="st0" width="40" height="40"/>
		</g>
	</g>
	<g>
		<g>
			<rect x="235" y="229.4" class="st0" width="40" height="40"/>
		</g>
	</g>
	<g>
		<g>
			<rect x="315" y="229.4" class="st0" width="40" height="40"/>
		</g>
	</g>
	<g>
		<g>
			<rect x="395" y="229.4" class="st0" width="40" height="40"/>
		</g>
	</g>
	<g>
		<g>
			<rect x="75" y="309.4" class="st0" width="40" height="40"/>
		</g>
	</g>
	<g>
		<g>
			<rect x="155" y="309.4" class="st0" width="40" height="40"/>
		</g>
	</g>
	<g>
		<g>
			<rect x="235" y="309.4" class="st0" width="40" height="40"/>
		</g>
	</g>
	<g>
		<g>
			<rect x="315" y="309.4" class="st0" width="40" height="40"/>
		</g>
	</g>
	<g>
		<g>
			<rect x="75" y="389.4" class="st0" width="40" height="40"/>
		</g>
	</g>
	<g>
		<g>
			<rect x="155" y="389.4" class="st0" width="40" height="40"/>
		</g>
	</g>
	<g>
		<g>
			<rect x="235" y="389.4" class="st0" width="40" height="40"/>
		</g>
	</g>
	<g>
		<g>
			<rect x="315" y="389.4" class="st0" width="40" height="40"/>
		</g>
	</g>
	<g>
		<g>
			<rect x="395" y="309.4" class="st0" width="40" height="40"/>
		</g>
	</g>
</g>
</svg>
