<?xml version="1.0" encoding="utf-8"?>
<!-- Generator: Adobe Illustrator 22.0.0, SVG Export Plug-In . SVG Version: 6.00 Build 0)  -->
<svg version="1.1" id="Capa_1" xmlns="http://www.w3.org/2000/svg" xmlns:xlink="http://www.w3.org/1999/xlink" x="0px" y="0px"
	 viewBox="0 0 413.2 413.2" style="enable-background:new 0 0 413.2 413.2;" xml:space="preserve">
<style type="text/css">
	.st0{fill:#58595B;}
	.st1{fill:#119A35;}
</style>
<g>
	<g>
		<g>
			<g>
				<path class="st0" d="M349.6,381.4H31.8V63.6h234.4L286,31.8H31.8C14.2,31.8,0,46,0,63.6v317.8c0,17.5,14.2,31.8,31.8,31.8h317.8
					c17.5,0,31.8-14.2,31.8-31.8V171.5l-31.8,50.9L349.6,381.4L349.6,381.4z"/>
				<path class="st1" d="M403.1,3.6c-3.8-2.4-8-3.6-12.2-3.6c-7.2,0-14.3,3.6-18.6,10.1L199.6,259.3L132.7,183
					c-9.1-8.4-23.1-7.8-31.5,1.2c-8.4,9-7.8,23.1,1.2,31.4l80.3,91.7l1.9,2.2l2,2.3l0.8,0.5l1.7,1.7l4.4,2l1,0.5l6.8,1.2l0.3-0.1
					c6,0,12-2.2,16.5-7l1.8-2.9l0.1-0.1L409.6,34.4C416.3,24.2,413.4,10.4,403.1,3.6z"/>
			</g>
		</g>
	</g>
</g>
</svg>
