<?xml version="1.0" encoding="utf-8"?>
<!-- Generator: Adobe Illustrator 22.0.0, SVG Export Plug-In . SVG Version: 6.00 Build 0)  -->
<svg version="1.1" xmlns="http://www.w3.org/2000/svg" xmlns:xlink="http://www.w3.org/1999/xlink" x="0px" y="0px"
	 viewBox="0 0 201.9 201.9" style="enable-background:new 0 0 201.9 201.9;" xml:space="preserve">
<style type="text/css">
	.st0{fill:#58595B;}
</style>
<g id="Capa_1">
	<g>
		<path class="st0" d="M104.8,175.8c0-2.1,1.7-3.7,3.7-3.7h12.7c5.4,3.6,11.4,6.1,17.8,7.2c-0.3,0.1-0.5,0.2-0.8,0.2h-29.8
			C106.5,179.5,104.8,177.9,104.8,175.8z M95.8,146.2h6.6c-0.7-2.4-1.2-4.9-1.5-7.4h-5.1c-2,0-3.7,1.7-3.7,3.7
			S93.7,146.2,95.8,146.2z M160.7,193.8L160.7,193.8l-0.2-0.3c-0.1,0-0.2,0-0.3,0h-129c-6.7,0-12.1-5.4-12.1-12.1V20.2
			c0-6.7,5.4-12.1,12.1-12.1h129c6.7,0,12.1,5.4,12.1,12.1V94c2.9,1.8,5.6,3.9,8.1,6.3V20.2c0-11.1-9-20.2-20.2-20.2h-129
			C20.1,0,11.1,9,11.1,20.2v161.3c0,11.1,9,20.1,20.2,20.1h129c1.6,0,3.1-0.2,4.6-0.6L160.7,193.8z M53.2,129.3h47.5
			c0.2-2.5,0.6-4.9,1.3-7.4H53.3c-2,0-3.7,1.7-3.7,3.7C49.5,127.7,51.2,129.3,53.2,129.3z M53.2,95.6h66.6c1.3-1,2.7-1.9,4.1-2.7
			c3.6-2.1,7.5-3.7,11.6-4.7H53.2c-2,0-3.7,1.7-3.7,3.7S51.2,95.6,53.2,95.6z M53.2,112.4h52.3c1.3-2.6,2.8-5.1,4.6-7.4H53.2
			c-2,0-3.7,1.7-3.7,3.7S51.2,112.4,53.2,112.4z M179.8,114.7c10.3,17.9,4.2,40.9-13.7,51.2c-17.9,10.3-40.8,4.2-51.2-13.7
			c-10.3-17.9-4.2-40.8,13.7-51.2C146.5,90.6,169.5,96.8,179.8,114.7z M174.4,117.8c-8.6-14.9-27.8-20.1-42.7-11.5
			c-14.9,8.6-20.1,27.8-11.4,42.7c8.6,14.9,27.8,20.1,42.7,11.5C177.9,151.9,183,132.7,174.4,117.8z M175.5,163.6l-16.1,9.3
			l12.4,21.5l16.1-9.3L175.5,163.6z M189.6,188l-16.1,9.3c2.6,4.5,8.3,6,12.7,3.4C190.6,198.1,192.2,192.4,189.6,188z"/>
	</g>
</g>
<g id="Layer_2">
	<path class="st0" d="M138.6,76.8H51.5c-0.9,0-1.7-0.6-1.7-1.3V20.6c0-0.7,0.8-1.3,1.7-1.3h87.1c0.9,0,1.7,0.6,1.7,1.3v54.9
		C140.2,76.2,139.5,76.8,138.6,76.8z M53.1,74.2h83.8V21.9H53.1V74.2z"/>
	<path class="st0" d="M138.6,76.8H93.7c-0.7,0-1.3-0.3-1.5-0.8c-0.3-0.5-0.2-1,0.3-1.4l26.4-23.2c0.6-0.6,1.9-0.6,2.5,0l18.4,16.2
		c0.3,0.2,0.4,0.5,0.4,0.9v7C140.2,76.2,139.5,76.8,138.6,76.8z M97.4,74.2h39.5v-5.2l-16.8-14.7L97.4,74.2z"/>
	<path class="st0" d="M93.7,76.8H51.5c-0.9,0-1.7-0.6-1.7-1.3V53.7c0-0.3,0.2-0.6,0.4-0.9L72,33.8c0.6-0.6,1.9-0.6,2.5,0L108,63.2
		c0.6,0.5,0.6,1.2,0,1.7L95,76.3C94.7,76.6,94.2,76.8,93.7,76.8z M53.1,74.2H93L104.5,64L73.2,36.6L53.1,54.2V74.2z"/>
	<path class="st0" d="M105.5,44.1c-3.6,0-6.5-2.9-6.5-6.5c0-3.6,2.9-6.5,6.5-6.5c3.6,0,6.5,2.9,6.5,6.5
		C112,41.2,109.1,44.1,105.5,44.1z M105.5,33.7c-2.2,0-3.9,1.8-3.9,3.9c0,2.2,1.8,3.9,3.9,3.9c2.2,0,3.9-1.8,3.9-3.9
		C109.4,35.4,107.7,33.7,105.5,33.7z"/>
</g>
</svg>
