<?xml version="1.0" encoding="utf-8"?>
<!-- Generator: Adobe Illustrator 22.0.0, SVG Export Plug-In . SVG Version: 6.00 Build 0)  -->
<svg version="1.1" id="Layer_1" xmlns="http://www.w3.org/2000/svg" xmlns:xlink="http://www.w3.org/1999/xlink" x="0px" y="0px"
	 viewBox="0 0 845.1 845.1" style="enable-background:new 0 0 845.1 845.1;" xml:space="preserve">
<style type="text/css">
	.st0{display:none;fill:#C7CCCF;}
	.st1{fill:#C7CCCF;}
</style>
<g>
	<g>
		<polygon id="XMLID_1304_" class="st0" points="376.9,470 408.3,564 377,658.1 608.2,564 		"/>
		<path class="st1" d="M754,564.9L754,564.9L754,564.9c0-0.3-0.1-0.6-0.1-1c0-0.1-0.1-0.2-0.1-0.3c-0.1-0.2-0.1-0.4-0.2-0.6
			c-0.1-0.1-0.1-0.2-0.1-0.3c-0.1-0.3-0.2-0.6-0.4-0.8l0,0c-0.2-0.2-0.3-0.4-0.6-0.7c-0.1-0.1-0.1-0.1-0.2-0.2
			c-0.2-0.1-0.3-0.3-0.5-0.4c-0.1-0.1-0.2-0.1-0.2-0.2c-0.2-0.1-0.4-0.2-0.6-0.3c-0.1-0.1-0.1-0.1-0.2-0.1c-0.1,0-0.1,0-0.1,0
			l-129-52.4c-0.6-0.3-1.3-0.4-1.9-0.4c-1.3,0-2.5,0.5-3.5,1.4c-1.4,1.3-2,3.4-1.3,5.3l17,50.8l-16.9,50.8c-0.6,1.9-0.1,4,1.3,5.3
			c1.4,1.3,3.5,1.7,5.4,1l128.9-52.4l0,0c0.1-0.1,0.1-0.1,0.2-0.1c0.2-0.1,0.4-0.2,0.6-0.3c0.1-0.1,0.2-0.1,0.2-0.2
			c0.2-0.1,0.3-0.2,0.5-0.4c0.1-0.1,0.1-0.1,0.2-0.2c0.2-0.2,0.3-0.4,0.5-0.6c0.1-0.1,0.1-0.1,0.1-0.1c0.2-0.3,0.3-0.5,0.4-0.8
			c0.1-0.1,0.1-0.2,0.1-0.3c0.1-0.2,0.1-0.4,0.2-0.6c0-0.1,0.1-0.2,0.1-0.3C753.9,565.5,754,565.3,754,564.9L754,564.9z M641.1,570
			h82l-94.8,38.6L641.1,570z M628.2,521.3l94.8,38.6h-82L628.2,521.3z"/>
		<path class="st1" d="M281.4,181.8c-1.7,1.7-2.7,4-2.7,6.4s1,4.7,2.7,6.4c1.7,1.7,4,2.7,6.4,2.7s4.7-1,6.4-2.7
			c1.7-1.7,2.7-4,2.7-6.4s-1-4.7-2.7-6.4c-1.7-1.7-4-2.7-6.4-2.7S283.1,180,281.4,181.8z"/>
		<path class="st1" d="M529.5,208.1c-3.4,3.6-3.3,9.3,0.3,12.8c3.6,3.4,9.3,3.3,12.8-0.3c3.5-3.6,3.4-9.3-0.2-12.8
			c-1.8-1.7-4-2.5-6.3-2.5C533.7,205.3,531.3,206.3,529.5,208.1z"/>
		<path class="st1" d="M546.9,244c2.3,4.5,7.7,6.3,12.2,4c4.5-2.3,6.3-7.7,4-12.2c-1.6-3.2-4.8-5-8.1-5c-1.4,0-2.8,0.3-4.1,1
			C546.4,234.1,544.6,239.5,546.9,244z"/>
		<path class="st1" d="M551.2,322.3c-3,0-6,1.5-7.7,4.3c-2.6,4.3-1.3,9.9,3,12.5s9.9,1.3,12.5-3c2.6-4.2,1.3-9.8-3-12.4
			C554.5,322.8,552.9,322.4,551.2,322.3z"/>
		<path class="st1" d="M561.1,310.8c4.9,1,9.7-2.1,10.7-7c1-4.9-2.1-9.7-7-10.7c-0.6-0.1-1.3-0.2-1.9-0.2c-4.1,0-7.9,2.9-8.8,7.2
			C553.1,305,556.2,309.8,561.1,310.8z"/>
		<path class="st1" d="M530.3,346.3c-2,0-4,0.6-5.7,2c-3.9,3.2-4.5,8.9-1.3,12.8c3.2,3.9,8.9,4.5,12.8,1.3c3.9-3.2,4.5-8.9,1.3-12.8
			C535.6,347.4,533,346.3,530.3,346.3z"/>
		<path class="st1" d="M192.3,465.9c5,0.7,9.6-2.7,10.3-7.7s-2.7-9.6-7.7-10.3c-0.4-0.1-0.9-0.1-1.3-0.1c-4.4,0-8.3,3.3-9,7.8
			C183.9,460.6,187.3,465.2,192.3,465.9z"/>
		<path class="st1" d="M213.2,513.9c-1.7-2.9-4.7-4.5-7.8-4.5c-1.6,0-3.2,0.4-4.6,1.2c-4.3,2.5-5.7,8.1-3.2,12.4s8.1,5.7,12.4,3.2
			C214.4,523.7,215.8,518.1,213.2,513.9z"/>
		<path class="st1" d="M216.6,395c-3.7,3.4-3.9,9.1-0.5,12.8c3.4,3.7,9.1,3.9,12.8,0.5s3.9-9.1,0.5-12.8c-1.7-1.9-4.2-2.9-6.6-2.9
			C220.6,392.6,218.4,393.4,216.6,395z"/>
		<path class="st1" d="M257.7,380.8c-1.5-3.5-4.8-5.5-8.3-5.5c-1.2,0-2.4,0.2-3.6,0.7c-4.6,2-6.7,7.3-4.7,11.9s7.3,6.7,11.9,4.7
			S259.7,385.3,257.7,380.8z"/>
		<path class="st1" d="M231.8,535.7c-1.8-1.5-3.8-2.2-5.9-2.2c-2.5,0-5.1,1.1-6.9,3.2c-3.3,3.8-2.8,9.6,1,12.8
			c3.8,3.3,9.6,2.8,12.8-1C236,544.7,235.5,539,231.8,535.7z"/>
		<path class="st1" d="M185.3,490.4L185.3,490.4c0.9,4.9,5.7,8.1,10.6,7.2c4.9-0.9,8.1-5.7,7.2-10.6c-0.8-4.4-4.7-7.4-8.9-7.4
			c-0.5,0-1.1,0.1-1.7,0.2C187.6,480.7,184.4,485.5,185.3,490.4z"/>
		<path class="st1" d="M195.5,422.5c-2.3,4.4-0.6,9.9,3.8,12.2c4.4,2.3,9.9,0.6,12.2-3.8s0.6-9.9-3.8-12.2c-1.3-0.7-2.8-1-4.2-1
			C200.2,417.7,197.1,419.5,195.5,422.5z"/>
		<path class="st1" d="M564.3,261.2c-0.4,0-0.8,0-1.2,0.1c-4.9,0.6-8.4,5.1-7.8,10.1c0.6,4.9,5.1,8.4,10.1,7.8s8.5-5.1,7.9-10.1
			C572.7,264.5,568.8,261.2,564.3,261.2z"/>
		<path class="st1" d="M353.1,376.5c0-5-4.1-9.1-9.1-9.1s-9.1,4.1-9.1,9.1c0,5.1,4.1,9.1,9.1,9.1S353,381.6,353.1,376.5z"/>
		<path class="st1" d="M447.3,197.2c5,0,9.1-4.1,9.1-9.1s-4.1-9.1-9.1-9.1c-5.1,0-9.1,4.1-9.1,9.1S442.3,197.2,447.3,197.2z"/>
		<path class="st1" d="M351.6,197.2c5,0,9.1-4.1,9.1-9.1s-4.1-9.1-9.1-9.1c-5.1,0-9.1,4.1-9.1,9.1S346.6,197.2,351.6,197.2z"/>
		<path class="st1" d="M448.7,376.5c0-5-4.1-9.1-9.1-9.1s-9.1,4.1-9.1,9.1c0,5.1,4.1,9.1,9.1,9.1
			C444.7,385.6,448.7,381.6,448.7,376.5z"/>
		<path class="st1" d="M385,376.5c0-5-4.1-9.1-9.1-9.1c-5.1,0-9.1,4.1-9.1,9.1c0,5.1,4.1,9.1,9.1,9.1S384.9,381.6,385,376.5z"/>
		<path class="st1" d="M319.8,197.2c5,0,9.1-4.1,9.1-9.1s-4.1-9.1-9.1-9.1c-5.1,0-9.1,4.1-9.1,9.1S314.7,197.2,319.8,197.2z"/>
		<path class="st1" d="M383.5,197.2c5.1,0,9.1-4.1,9.1-9.1s-4.1-9.1-9.1-9.1s-9.1,4.1-9.1,9.1S378.5,197.2,383.5,197.2z"/>
		<path class="st1" d="M415.4,197.2c5,0,9-4.1,9-9.1s-4-9.1-9-9.1c-5.1,0-9.1,4.1-9.1,9.1S410.4,197.2,415.4,197.2z"/>
		<path class="st1" d="M119.2,181.8c-1.7,1.7-2.7,4-2.7,6.4s1,4.7,2.7,6.4s4,2.7,6.4,2.7s4.7-1,6.4-2.7c1.7-1.7,2.7-4,2.7-6.4
			s-1-4.7-2.7-6.4s-4-2.7-6.4-2.7C123.2,179.1,120.9,180,119.2,181.8z"/>
		<path class="st1" d="M189.4,197.2c5,0,9.1-4.1,9.1-9.1s-4.1-9.1-9.1-9.1c-5.1,0-9.1,4.1-9.1,9.1S184.4,197.2,189.4,197.2z"/>
		<path class="st1" d="M157.6,197.2c5,0,9.1-4.1,9.1-9.1s-4.1-9.1-9.1-9.1c-5.1,0-9.1,4.1-9.1,9.1S152.5,197.2,157.6,197.2z"/>
		<path class="st1" d="M221.3,197.2c5.1,0,9.1-4.1,9.1-9.1s-4.1-9.1-9.1-9.1s-9.1,4.1-9.1,9.1S216.3,197.2,221.3,197.2z"/>
		<path class="st1" d="M253.2,197.2c5,0,9-4.1,9-9.1s-4-9.1-9-9.1c-5.1,0-9.1,4.1-9.1,9.1S248.2,197.2,253.2,197.2z"/>
		<path class="st1" d="M416.9,376.5c0-5-4.1-9.1-9.1-9.1c-5.1,0-9.1,4.1-9.1,9.1c0,5.1,4.1,9.1,9.1,9.1S416.8,381.6,416.9,376.5z"/>
		<path class="st1" d="M312.1,385.7c5.1,0,9.1-4.1,9.1-9.1s-4.1-9.1-9.1-9.1s-9.1,4.1-9.1,9.1S307.1,385.6,312.1,385.7z"/>
		<path class="st1" d="M284.5,555.9c-5-0.1-9.2,3.8-9.3,8.8c-0.1,5,3.8,9.2,8.8,9.3c5,0.2,9.2-3.8,9.3-8.8
			C293.5,560.2,289.5,556.1,284.5,555.9z"/>
		<path class="st1" d="M280.8,385.8c5-0.4,8.7-4.7,8.4-9.7c-0.3-4.8-4.3-8.4-9-8.4c-0.2,0-0.4,0-0.6,0c-5,0.4-8.7,4.7-8.4,9.7
			C271.5,382.4,275.8,386.2,280.8,385.8z"/>
		<path class="st1" d="M256.4,550.4c-1-0.4-2.1-0.6-3.2-0.6c-3.7,0-7.1,2.2-8.5,5.8c-1.8,4.7,0.5,9.9,5.2,11.7s9.9-0.5,11.7-5.2
			C263.4,557.4,261.1,552.2,256.4,550.4z"/>
		<path class="st1" d="M502.8,362c-1,0-2.1,0.1-3.1,0.5c-4.8,1.7-7.2,6.9-5.5,11.6c1.7,4.7,6.9,7.1,11.6,5.4l0,0
			c4.8-1.7,7.2-6.9,5.5-11.6C510,364.2,506.5,361.9,502.8,362z"/>
		<path class="st1" d="M480.7,376.5c-0.1-5-4.1-9-9.1-9c-0.1,0-0.1,0-0.1,0c-5,0-9,4.1-9,9.1s4.1,9,9.1,9S480.6,381.5,480.7,376.5z"
			/>
		<path class="st1" d="M501.6,192.8c-2.1,4.5-0.1,9.9,4.5,12s9.9,0.1,12-4.5c2.1-4.5,0.1-9.9-4.5-12c-1.3-0.5-2.5-0.8-3.8-0.8
			C506.4,187.5,503.1,189.5,501.6,192.8z"/>
		<path class="st1" d="M478.3,197.4L478.3,197.4c5,0.5,9.4-3.2,9.8-8.2c0.5-5-3.2-9.4-8.2-9.8c-0.3,0-0.5,0-0.8,0
			c-4.6,0-8.6,3.6-9,8.3C469.7,192.7,473.4,197.1,478.3,197.4z"/>
		<path class="st1" d="M316.6,555.9c-2.4,0-4.7,1-6.4,2.7c-1.7,1.7-2.7,4-2.7,6.4c0,2.4,1,4.7,2.7,6.4c1.7,1.7,4,2.7,6.4,2.7
			s4.7-1,6.4-2.7c1.6-1.7,2.6-4,2.6-6.4c0-2.4-0.9-4.7-2.6-6.4C321.3,556.9,319,556,316.6,555.9z"/>
		<path class="st1" d="M350.9,555.9c-5-0.1-9.2,3.8-9.3,8.8s3.8,9.2,8.8,9.3c5,0.2,9.2-3.8,9.3-8.8
			C359.9,560.2,355.9,556.1,350.9,555.9z"/>
		<path class="st1" d="M383,555.9c-2.4,0-4.7,1-6.4,2.7c-1.7,1.7-2.7,4-2.7,6.4c0,2.4,1,4.7,2.7,6.4c1.7,1.7,4,2.7,6.4,2.7
			s4.7-1,6.4-2.7c1.6-1.7,2.6-4,2.6-6.4c0-2.4-0.9-4.7-2.6-6.4C387.7,556.9,385.4,556,383,555.9z"/>
		<path class="st1" d="M414.6,555.9c-5-0.1-9.2,3.8-9.3,8.8c-0.1,5,3.8,9.2,8.8,9.3c5,0.2,9.2-3.8,9.3-8.8
			C423.6,560.2,419.6,556.1,414.6,555.9z"/>
		<path class="st1" d="M446.7,555.9c-2.4,0-4.7,1-6.4,2.7c-1.7,1.7-2.7,4-2.7,6.4c0,2.4,1,4.7,2.7,6.4c1.7,1.7,4,2.7,6.4,2.7
			s4.7-1,6.4-2.7c1.6-1.7,2.6-4,2.6-6.4c0-2.4-0.9-4.7-2.6-6.4C451.4,556.9,449.1,556,446.7,555.9z"/>
		<path class="st1" d="M482.6,555.9c-5-0.1-9.2,3.8-9.3,8.8c-0.1,5,3.8,9.2,8.8,9.3c5,0.2,9.2-3.8,9.3-8.8
			C491.6,560.2,487.6,556.1,482.6,555.9z"/>
		<path class="st1" d="M514.7,555.9c-2.4,0-4.7,1-6.4,2.7c-1.7,1.7-2.7,4-2.7,6.4c0,2.4,1,4.7,2.7,6.4c1.7,1.7,4,2.7,6.4,2.7
			c2.4,0,4.7-1,6.4-2.7c1.6-1.7,2.6-4,2.6-6.4c0-2.4-0.9-4.7-2.6-6.4S517.1,556,514.7,555.9z"/>
		<path class="st1" d="M546.3,555.9c-5-0.1-9.2,3.8-9.3,8.8c-0.1,5,3.8,9.2,8.8,9.3c5,0.2,9.2-3.8,9.3-8.8
			C555.3,560.2,551.3,556.1,546.3,555.9z"/>
		<path class="st1" d="M578.4,555.9c-2.4,0-4.7,1-6.4,2.7c-1.7,1.7-2.7,4-2.7,6.4c0,2.4,1,4.7,2.7,6.4c1.7,1.7,4,2.7,6.4,2.7
			c2.4,0,4.7-1,6.4-2.7c1.6-1.7,2.6-4,2.6-6.4c0-2.4-0.9-4.7-2.6-6.4C583.1,556.9,580.8,556,578.4,555.9z"/>
		<path class="st1" d="M610.2,555.9c-2.4,0-4.7,1-6.4,2.7s-2.7,4-2.7,6.4c0,2.4,1,4.7,2.7,6.4c1.7,1.7,4,2.7,6.4,2.7
			c2.4,0,4.7-1,6.4-2.7c1.6-1.7,2.6-4,2.6-6.4c0-2.4-0.9-4.7-2.6-6.4S612.6,556,610.2,555.9z"/>
	</g>
</g>
</svg>
