<?xml version="1.0" encoding="utf-8"?>
<!-- Generator: Adobe Illustrator 22.0.0, SVG Export Plug-In . SVG Version: 6.00 Build 0)  -->
<svg version="1.1" id="Layer_1" xmlns="http://www.w3.org/2000/svg" xmlns:xlink="http://www.w3.org/1999/xlink" x="0px" y="0px"
	 viewBox="0 0 200 200" style="enable-background:new 0 0 200 200;" xml:space="preserve">
<style type="text/css">
	.st0{fill:#E74B65;}
</style>
<g>
	<g>
		<path class="st0" d="M179,170.5c-1.3,0-2.7,0.4-3.9,1c-12.6,7.3-27,11.2-41.6,11.2c-35.3,0-66.5-23-78.2-55.3h71.2
			c4.2,0,7.7-3.4,7.7-7.7c0-4.2-3.4-7.7-7.7-7.7h-75c-0.6-4.6-0.9-8.3-0.9-12.3c0-4,0.3-7.7,0.9-12.3h75c4.2,0,7.7-3.4,7.7-7.7
			c0-4.2-3.4-7.7-7.7-7.7H55.3C67,38.3,98.2,16.7,133.5,16.7c14.6,0,29,3.9,41.6,11.2c1.2,0.7,2.5,1,3.9,1c2.7,0,5.3-1.5,6.7-3.8
			c2.1-3.7,0.9-8.4-2.8-10.5c-14.9-8.7-32-13.2-49.3-13.2C90,1.4,51.4,30.6,39.1,72.1H20.4c-4.2,0-7.7,3.4-7.7,7.7
			c0,4.2,3.5,7.7,7.7,7.7h15.6c-0.5,4.6-0.8,8.3-0.8,12.3c0,4,0.3,7.7,0.8,12.3H20.4c-4.2,0-7.7,3.4-7.7,7.7c0,4.2,3.5,7.7,7.7,7.7
			h18.8c12.2,41.5,50.9,70.7,94.4,70.7c17.3,0,34.4-4.6,49.3-13.3c3.7-2.1,4.9-6.9,2.8-10.5C184.3,172,181.7,170.5,179,170.5z"/>
	</g>
</g>
</svg>
